<svg width="40" height="40" viewBox="0 0 40 40" fill="none" xmlns="http://www.w3.org/2000/svg">
<path d="M33.3624 12.7474C34.5561 11.5524 34.5561 9.61704 33.3624 8.42269L29.5368 4.59645C28.3431 3.40274 26.4052 3.40274 25.2115 4.59645L21.6125 8.19668L29.7043 16.3457L33.3624 12.7474ZM20.1775 9.63614L3.64385 26.1698C3.50162 26.312 3.40485 26.4931 3.36525 26.6903L1.68833 35.0749C1.54572 35.788 2.17422 36.4164 2.88713 36.2737L11.2717 34.5962C11.469 34.5568 11.65 34.4599 11.7922 34.3178L28.3259 17.7841L20.1775 9.63614ZM36.8067 33.241H17.4527C16.6059 33.241 15.9247 33.9222 15.9247 34.769C15.9247 35.6157 16.6059 36.2969 17.4527 36.2969H36.8067C37.6502 36.2969 38.3346 35.6125 38.3346 34.769C38.3346 33.9222 37.6534 33.241 36.8067 33.241Z" fill="black"/>
</svg>
