<svg width="80" height="80" viewBox="0 0 80 80" fill="none" xmlns="http://www.w3.org/2000/svg">
<rect width="80" height="80" rx="40" fill="white"/>
<path d="M50.1865 30.8328C50.1865 29.1452 48.8179 27.7772 47.1309 27.7772H44.0754V25.6829C44.0754 24.6198 43.1587 23.7031 42.0383 23.7031C40.918 23.7031 40.0013 24.6198 40.0013 25.6829V27.7772H31.8532V25.6829C31.8532 24.6198 30.9365 23.7031 29.8161 23.7031C28.6957 23.7031 27.7791 24.6198 27.7791 25.6829V27.7772H24.7235C23.036 27.7772 21.668 29.1452 21.668 30.8328V33.8883H50.1865V30.8328ZM49.168 37.9624C44.1008 37.9624 40.0013 42.0619 40.0013 47.129C40.0013 52.1962 44.0996 56.2957 49.168 56.2957C54.2364 56.2957 58.3346 52.1962 58.3346 47.129C58.3346 42.0619 54.2351 37.9624 49.168 37.9624ZM52.2235 48.1476H48.7701C48.4295 48.1476 48.1494 47.8675 48.1494 47.5301V43.055C48.1494 42.4948 48.6078 42.0365 49.168 42.0365C49.7282 42.0365 50.1865 42.4948 50.1865 43.055V46.1105H52.2235C52.7861 46.1105 53.242 46.5664 53.242 47.129C53.242 47.6892 52.7837 48.1476 52.2235 48.1476ZM37.9643 47.129C37.9643 40.9415 42.9805 35.9253 49.168 35.9253H21.668V53.2402C21.668 54.9271 23.0366 56.2957 24.7235 56.2957H42.7386C39.8549 54.2714 37.9643 50.923 37.9643 47.129Z" fill="#E4C972"/>
</svg>
