<svg width="80" height="80" viewBox="0 0 80 80" fill="none" xmlns="http://www.w3.org/2000/svg">
<rect width="80" height="80" rx="40" fill="white"/>
<path d="M56.0404 29.6868V33.1243H23.957V29.6868C23.957 27.7883 25.496 26.2493 27.3945 26.2493H30.832V23.8932C30.832 22.6973 31.8633 21.666 33.1237 21.666C34.3841 21.666 35.4154 22.6973 35.4154 23.8932V26.2493H44.582V23.8932C44.582 22.6973 45.6133 21.666 46.8737 21.666C48.1341 21.666 49.1654 22.6973 49.1654 23.8932V26.2493H52.6029C54.5007 26.2493 56.0404 27.7883 56.0404 29.6868ZM23.957 35.416H56.0404V54.8952C56.0404 56.793 54.5007 58.3327 52.6029 58.3327H27.3945C25.4967 58.3327 23.957 56.793 23.957 54.8952V35.416ZM33.625 48.6003L37.0625 52.0378C37.3848 52.36 37.823 52.5413 38.2778 52.5413C38.3002 52.5413 38.3226 52.5413 38.3427 52.539C38.8217 52.5211 39.2715 52.3041 39.5823 51.9415L46.4573 43.9207C47.075 43.2002 46.9922 42.1145 46.2716 41.4972C45.5533 40.8818 44.4676 40.9623 43.8481 41.683L38.1813 48.2959L36.055 46.1696C35.3837 45.4983 34.2962 45.4983 33.6244 46.1696C32.9527 46.841 32.959 47.9915 33.625 48.6003Z" fill="#74CE9B"/>
</svg>
