<svg width="80" height="80" viewBox="0 0 80 80" fill="none" xmlns="http://www.w3.org/2000/svg">
<rect opacity="0.2" width="80" height="80" rx="40" fill="white"/>
<path d="M45.5013 40.0104V28.9589C45.5013 26.9909 43.857 25.3438 41.8346 25.3438H25.3346C23.3151 25.3438 21.668 26.9909 21.668 28.9589V39.9589C21.668 42.0271 23.3151 43.6771 25.3346 43.6771L27.168 43.6777V46.7858C27.168 47.244 27.6908 47.5088 28.056 47.2369L32.7969 43.678L41.8346 43.6714C43.857 43.6771 45.5013 42.0271 45.5013 40.0104ZM54.668 32.6771H47.3346V40.0104C47.3346 43.0394 44.8636 45.5098 41.8346 45.5098L36.3346 45.5099V47.3421C36.3346 49.3616 37.9818 50.9572 39.9497 50.9572L47.157 50.9568L51.8979 54.5157C52.3133 54.8375 52.8346 54.574 52.8346 54.1156V51.0081H54.668C56.6875 51.0081 58.3346 49.361 58.3346 47.393V36.2922C58.3346 34.3214 56.6904 32.6771 54.668 32.6771Z" fill="white"/>
</svg>
