<svg width="80" height="80" viewBox="0 0 80 80" fill="none" xmlns="http://www.w3.org/2000/svg">
<rect width="80" height="80" rx="40" fill="white"/>
<path d="M40.8378 37.7866L39.119 39.3615C36.793 41.4934 34.1461 40.0439 33.2924 39.1158C31.7513 37.4314 31.8716 34.8246 33.5445 33.2892L38.231 28.998H37.8529C34.5414 28.998 31.356 30.3129 29.0128 32.6533L23.5013 32.6704C22.493 32.6704 21.668 33.4949 21.668 34.5026V43.6578C21.668 44.6656 22.493 45.4935 23.4497 45.4935L29.9982 45.49L35.1831 50.1776C36.7586 51.4592 39.0646 51.2152 40.3393 49.6474L41.3774 50.5211C42.2872 51.2143 43.6336 51.1226 44.3784 50.2135L46.1762 48.002L46.4841 48.2597C47.2718 48.8899 48.4251 48.7755 49.0622 47.9877L49.6108 47.3099C50.2456 46.525 50.1253 45.3763 49.3415 44.7398L40.8378 37.7866ZM56.5013 32.6704L51.0013 32.6632C48.6535 30.3166 45.4692 29.0034 42.1497 29.0034L41.657 28.998C41.1987 28.998 40.7621 29.1812 40.4184 29.4889L34.7878 34.6298C34.782 34.6413 34.7763 34.6527 34.7763 34.6527C33.8138 35.5579 33.8367 36.9788 34.6503 37.8611C35.2017 38.4626 36.6555 39.0997 37.866 38.0186C37.866 38.0115 37.8804 38.0115 37.8875 38.0043L42.4709 33.8163C42.8433 33.4799 43.423 33.5014 43.7668 33.8736C44.1105 34.2457 44.0819 34.8258 43.7095 35.1695L42.213 36.5371L50.5547 43.3032C51.2491 43.8757 51.6719 44.649 51.822 45.4791L56.5013 45.4809C57.5096 45.4809 58.3346 44.657 58.3346 43.6487V34.5038C58.3346 33.4897 57.5154 32.6704 56.5013 32.6704Z" fill="#2C7BF0"/>
</svg>
